<svg width="133" height="231" viewBox="0 0 133 231" fill="none" xmlns="http://www.w3.org/2000/svg">
<path d="M109.549 119.999C112.553 112.425 116.525 104.681 121.656 101.562C122.975 111.237 126.371 122.514 126.711 132.378C126.751 133.515 121.96 131.759 121.744 131.646C116.998 129.162 112.606 125.664 108.177 121.93" stroke="#CC5500" stroke-width="2.68424" stroke-miterlimit="1.5" stroke-linecap="round" stroke-linejoin="round"/>
<path d="M116.409 110.226C105.253 78.752 82.8325 57.8356 61.5818 71.061C56.1214 74.4592 49.4143 78.6618 46.0232 87.5776C44.1009 92.6322 42.7959 100.553 44.4009 106.041C47.3995 116.294 56.2402 113.933 59.1124 103.699C60.5612 98.537 60.499 89.17 59.1137 84.1322C58.1296 80.5508 56.7 77.2542 54.6675 75.2665C37.4158 58.396 10.9505 79.9888 2.75669 110.913" stroke="#CC5500" stroke-width="2.68424" stroke-miterlimit="1.5" stroke-linecap="round" stroke-linejoin="round"/>
</svg>
