<svg width="60" height="90" viewBox="0 0 60 90" fill="none" xmlns="http://www.w3.org/2000/svg">
<g opacity="0.2">
<path opacity="0.2" d="M56.7442 87.4084L29.7373 37.4908L2.73047 87.4084H56.7442Z" fill="#407BFF"/>
<path opacity="0.2" d="M56.7442 2.96179L29.7373 52.8751L2.73047 2.96179H56.7442Z" fill="#407BFF"/>
</g>
<path d="M34.6842 32.4326L30.7322 39.7345C30.6352 39.9143 30.4914 40.0646 30.316 40.1693C30.1405 40.274 29.94 40.3293 29.7357 40.3293C29.5314 40.3293 29.3309 40.274 29.1555 40.1693C28.98 40.0646 28.8362 39.9143 28.7392 39.7345L24.7872 32.4326C24.4309 31.7726 24.2522 31.0314 24.2686 30.2815C24.285 29.5317 24.4959 28.7989 24.8806 28.1551C25.2654 27.5113 25.8108 26.9785 26.4634 26.6089C27.1161 26.2392 27.8535 26.0455 28.6035 26.0466H30.8891C31.6373 26.0492 32.3721 26.2456 33.0218 26.6167C33.6715 26.9878 34.214 27.521 34.5962 28.1642C34.9785 28.8074 35.1875 29.5387 35.203 30.2868C35.2184 31.0349 35.0396 31.7742 34.6842 32.4326Z" fill="#407BFF"/>
<path d="M30.1648 74.8064L42.4407 79.8525C42.6802 79.9535 42.8777 80.1338 43 80.3633C43.1222 80.5927 43.1618 80.8572 43.1121 81.1123C43.0624 81.3675 42.9263 81.5978 42.7268 81.7645C42.5274 81.9312 42.2766 82.0242 42.0167 82.0278H17.4777C17.2177 82.0242 16.967 81.9312 16.7675 81.7645C16.568 81.5978 16.432 81.3675 16.3822 81.1123C16.3325 80.8572 16.3721 80.5927 16.4944 80.3633C16.6166 80.1338 16.8141 79.9535 17.0537 79.8525L29.2956 74.8064C29.4332 74.7487 29.581 74.719 29.7302 74.719C29.8795 74.719 30.0272 74.7487 30.1648 74.8064Z" fill="#407BFF"/>
<path d="M29.7333 65.2062C30.6022 65.2062 31.3065 64.5018 31.3065 63.633C31.3065 62.7641 30.6022 62.0598 29.7333 62.0598C28.8645 62.0598 28.1602 62.7641 28.1602 63.633C28.1602 64.5018 28.8645 65.2062 29.7333 65.2062Z" fill="#407BFF"/>
<path d="M29.7337 48.0117C30.181 48.0117 30.5437 47.649 30.5437 47.2017C30.5437 46.7544 30.181 46.3918 29.7337 46.3918C29.2864 46.3918 28.9238 46.7544 28.9238 47.2017C28.9238 47.649 29.2864 48.0117 29.7337 48.0117Z" fill="#407BFF"/>
<path d="M29.7346 55.9538C30.2428 55.9538 30.6548 55.5419 30.6548 55.0337C30.6548 54.5255 30.2428 54.1135 29.7346 54.1135C29.2264 54.1135 28.8145 54.5255 28.8145 55.0337C28.8145 55.5419 29.2264 55.9538 29.7346 55.9538Z" fill="#407BFF"/>
<path d="M56.606 84.9453H2.86371C2.21139 84.9476 1.58649 85.208 1.12562 85.6696C0.664757 86.1313 0.405414 86.7566 0.404297 87.409C0.406532 88.0605 0.666366 88.6848 1.12711 89.1455C1.58786 89.6063 2.21212 89.8661 2.86371 89.8684H56.606C57.2576 89.8661 57.8819 89.6063 58.3426 89.1455C58.8034 88.6848 59.0632 88.0605 59.0654 87.409C59.0643 86.7566 58.805 86.1313 58.3441 85.6696C57.8833 85.208 57.2584 84.9476 56.606 84.9453Z" fill="#407BFF"/>
<path d="M56.606 0.502441H2.86371C2.21212 0.504677 1.58786 0.76451 1.12711 1.22525C0.666366 1.686 0.406532 2.31026 0.404297 2.96185C0.406532 3.61343 0.666366 4.2377 1.12711 4.69844C1.58786 5.15918 2.21212 5.41902 2.86371 5.42125H56.606C57.2576 5.41902 57.8819 5.15918 58.3426 4.69844C58.8034 4.2377 59.0632 3.61343 59.0654 2.96185C59.0632 2.31026 58.8034 1.686 58.3426 1.22525C57.8819 0.76451 57.2576 0.504677 56.606 0.502441Z" fill="#407BFF"/>
</svg>
