<svg width="64" height="64" viewBox="0 0 64 64" fill="none" xmlns="http://www.w3.org/2000/svg">
<rect width="64" height="64" rx="32" fill="#CBEA7B"/>
<path fill-rule="evenodd" clip-rule="evenodd" d="M48.0046 18.6666C49.4773 18.6666 50.6712 19.8605 50.6712 21.3332L50.6712 29.3332C50.6712 30.806 49.4773 31.9999 48.0046 31.9999C46.5318 31.9999 45.3379 30.806 45.3379 29.3332L45.3379 21.3332C45.3379 19.8605 46.5318 18.6666 48.0046 18.6666Z" fill="#705600"/>
<path fill-rule="evenodd" clip-rule="evenodd" d="M16.0007 18.6666C17.4734 18.6666 18.6673 19.8605 18.6673 21.3332L18.6673 29.3332C18.6673 30.806 17.4734 31.9999 16.0007 31.9999C14.5279 31.9999 13.334 30.806 13.334 29.3332L13.334 21.3332C13.334 19.8605 14.5279 18.6666 16.0007 18.6666Z" fill="#705600"/>
<path fill-rule="evenodd" clip-rule="evenodd" d="M45.5745 38.2084C46.9971 38.5896 47.8413 40.0518 47.4601 41.4744C46.5485 44.8765 44.5398 47.8828 41.7455 50.0269C38.9512 52.1711 35.5275 53.3333 32.0053 53.3333C28.4832 53.3333 25.0594 52.1711 22.2651 50.0269C19.4708 47.8828 17.4621 44.8765 16.5505 41.4744C16.1693 40.0518 17.0136 38.5896 18.4361 38.2084C19.8587 37.8272 21.3209 38.6715 21.7021 40.094C22.3098 42.3621 23.649 44.3663 25.5119 45.7957C27.3747 47.2252 29.6572 48 32.0053 48C34.3534 48 36.6359 47.2252 38.4988 45.7957C40.3617 44.3663 41.7008 42.3621 42.3085 40.094C42.6897 38.6715 44.1519 37.8272 45.5745 38.2084Z" fill="#705600"/>
</svg>
