<svg width="64" height="64" viewBox="0 0 64 64" fill="none" xmlns="http://www.w3.org/2000/svg">
<rect width="64" height="64" rx="32" fill="#D4D4D8"/>
<path fill-rule="evenodd" clip-rule="evenodd" d="M48.0046 18.6666C49.4773 18.6666 50.6712 19.8605 50.6712 21.3332L50.6712 29.3332C50.6712 30.806 49.4773 31.9999 48.0046 31.9999C46.5318 31.9999 45.3379 30.806 45.3379 29.3332L45.3379 21.3332C45.3379 19.8605 46.5318 18.6666 48.0046 18.6666Z" fill="#4F3422"/>
<path fill-rule="evenodd" clip-rule="evenodd" d="M16.0007 18.6666C17.4734 18.6666 18.6673 19.8605 18.6673 21.3332L18.6673 29.3332C18.6673 30.806 17.4734 31.9999 16.0007 31.9999C14.5279 31.9999 13.334 30.806 13.334 29.3332L13.334 21.3332C13.334 19.8605 14.5279 18.6666 16.0007 18.6666Z" fill="#4F3422"/>
<path fill-rule="evenodd" clip-rule="evenodd" d="M13.334 42.6667C13.334 41.1939 14.5279 40 16.0007 40H48.0007C49.4734 40 50.6673 41.1939 50.6673 42.6667C50.6673 44.1394 49.4734 45.3333 48.0007 45.3333H16.0007C14.5279 45.3333 13.334 44.1394 13.334 42.6667Z" fill="#4F3422"/>
</svg>
