<svg width="64" height="64" viewBox="0 0 64 64" fill="none" xmlns="http://www.w3.org/2000/svg">
<rect width="64" height="64" rx="32" fill="#FFCC66"/>
<path fill-rule="evenodd" clip-rule="evenodd" d="M22.2651 37.9731C25.0595 35.8289 28.4832 34.6667 32.0053 34.6667C35.5275 34.6667 38.9512 35.8289 41.7455 37.9731C44.5398 40.1172 46.5485 43.1235 47.4601 46.5256C47.8413 47.9482 46.9971 49.4105 45.5745 49.7916C44.1519 50.1728 42.6897 49.3286 42.3085 47.906C41.7008 45.6379 40.3617 43.6337 38.4988 42.2043C36.6359 40.7749 34.3534 40.0001 32.0053 40.0001C29.6572 40.0001 27.3747 40.7749 25.5119 42.2043C23.649 43.6337 22.3098 45.6379 21.7021 47.906C21.3209 49.3286 19.8587 50.1728 18.4361 49.7916C17.0136 49.4104 16.1693 47.9482 16.5505 46.5256C17.4621 43.1235 19.4708 40.1172 22.2651 37.9731Z" fill="#663600"/>
<path fill-rule="evenodd" clip-rule="evenodd" d="M16.0007 18.6666C17.4734 18.6666 18.6673 19.8605 18.6673 21.3332V29.3332C18.6673 30.806 17.4734 31.9999 16.0007 31.9999C14.5279 31.9999 13.334 30.806 13.334 29.3332V21.3332C13.334 19.8605 14.5279 18.6666 16.0007 18.6666Z" fill="#663600"/>
<path fill-rule="evenodd" clip-rule="evenodd" d="M48.0046 18.6666C49.4773 18.6666 50.6712 19.8605 50.6712 21.3332V29.3332C50.6712 30.806 49.4773 31.9999 48.0046 31.9999C46.5318 31.9999 45.3379 30.806 45.3379 29.3332V21.3332C45.3379 19.8605 46.5318 18.6666 48.0046 18.6666Z" fill="#663600"/>
</svg>
