<svg width="64" height="64" viewBox="0 0 64 64" fill="none" xmlns="http://www.w3.org/2000/svg">
<rect width="64" height="64" rx="32" fill="#9DC209"/>
<path fill-rule="evenodd" clip-rule="evenodd" d="M42.2725 21.9423C43.2431 21.5402 44.2834 21.3333 45.334 21.3333C46.3846 21.3333 47.4248 21.5402 48.3955 21.9423C49.3661 22.3443 50.248 22.9336 50.9908 23.6765C51.7337 24.4193 52.323 25.3012 52.725 26.2718C53.1271 27.2425 53.334 28.2827 53.334 29.3333C53.334 30.8061 52.1401 32 50.6673 32C49.1946 32 48.0007 30.8061 48.0007 29.3333C48.0007 28.9831 47.9317 28.6364 47.7977 28.3128C47.6637 27.9893 47.4672 27.6953 47.2196 27.4477C46.972 27.2001 46.678 27.0036 46.3545 26.8696C46.0309 26.7356 45.6842 26.6666 45.334 26.6666C44.9838 26.6666 44.637 26.7356 44.3135 26.8696C43.99 27.0036 43.696 27.2001 43.4484 27.4477C43.2007 27.6953 43.0043 27.9893 42.8703 28.3128C42.7363 28.6364 42.6673 28.9831 42.6673 29.3333C42.6673 30.8061 41.4734 32 40.0007 32C38.5279 32 37.334 30.8061 37.334 29.3333C37.334 28.2827 37.5409 27.2425 37.9429 26.2718C38.345 25.3012 38.9343 24.4193 39.6771 23.6765C40.42 22.9336 41.3019 22.3443 42.2725 21.9423Z" fill="#3D4A26"/>
<path fill-rule="evenodd" clip-rule="evenodd" d="M45.5687 38.2084C46.9912 38.5896 47.8355 40.0518 47.4543 41.4744C46.5427 44.8765 44.534 47.8828 41.7396 50.0269C38.9453 52.1711 35.5216 53.3333 31.9995 53.3333C28.4773 53.3333 25.0536 52.1711 22.2593 50.0269C19.465 47.8828 17.4563 44.8765 16.5447 41.4744C16.1635 40.0518 17.0077 38.5896 18.4303 38.2084C19.8528 37.8272 21.3151 38.6715 21.6963 40.094C22.304 42.3621 23.6431 44.3663 25.506 45.7957C27.3689 47.2252 29.6514 48 31.9995 48C34.3476 48 36.6301 47.2252 38.4929 45.7957C40.3558 44.3663 41.6949 42.3621 42.3027 40.094C42.6839 38.6715 44.1461 37.8272 45.5687 38.2084Z" fill="#3D4A26"/>
<path fill-rule="evenodd" clip-rule="evenodd" d="M15.6045 21.9423C16.5752 21.5402 17.6154 21.3333 18.666 21.3333C19.7166 21.3333 20.7569 21.5402 21.7275 21.9423C22.6981 22.3443 23.58 22.9336 24.3229 23.6765C25.0657 24.4193 25.655 25.3012 26.0571 26.2718C26.4591 27.2425 26.666 28.2827 26.666 29.3333C26.666 30.8061 25.4721 32 23.9993 32C22.5266 32 21.3327 30.8061 21.3327 29.3333C21.3327 28.9831 21.2637 28.6364 21.1297 28.3128C20.9957 27.9893 20.7993 27.6953 20.5516 27.4477C20.304 27.2001 20.01 27.0036 19.6865 26.8696C19.363 26.7356 19.0162 26.6666 18.666 26.6666C18.3158 26.6666 17.9691 26.7356 17.6455 26.8696C17.322 27.0036 17.028 27.2001 16.7804 27.4477C16.5328 27.6953 16.3363 27.9893 16.2023 28.3128C16.0683 28.6364 15.9993 28.9831 15.9993 29.3333C15.9993 30.8061 14.8054 32 13.3327 32C11.8599 32 10.666 30.8061 10.666 29.3333C10.666 28.2827 10.8729 27.2425 11.275 26.2718C11.677 25.3012 12.2663 24.4193 13.0092 23.6765C13.752 22.9336 14.6339 22.3443 15.6045 21.9423Z" fill="#3D4A26"/>
</svg>
