<svg width="64" height="64" viewBox="0 0 64 64" fill="none" xmlns="http://www.w3.org/2000/svg">
<rect width="64" height="64" rx="32" fill="#A7C0FF"/>
<path fill-rule="evenodd" clip-rule="evenodd" d="M40.781 16.7812C41.8224 15.7398 43.5109 15.7398 44.5523 16.7812L52.5523 24.7812C53.5937 25.8226 53.5937 27.5111 52.5523 28.5525C51.5109 29.5939 49.8224 29.5939 48.781 28.5525L40.781 20.5525C39.7397 19.5111 39.7397 17.8226 40.781 16.7812Z" fill="#3C357C"/>
<path fill-rule="evenodd" clip-rule="evenodd" d="M52.5529 16.7812C53.5943 17.8226 53.5943 19.5111 52.5529 20.5525L44.5529 28.5525C43.5115 29.5939 41.8231 29.5939 40.7817 28.5525C39.7403 27.5111 39.7403 25.8226 40.7817 24.7812L48.7817 16.7812C49.8231 15.7398 51.5115 15.7398 52.5529 16.7812Z" fill="#3C357C"/>
<path fill-rule="evenodd" clip-rule="evenodd" d="M11.4451 16.7812C12.4865 15.7398 14.1749 15.7398 15.2163 16.7812L23.2163 24.7812C24.2577 25.8226 24.2577 27.5111 23.2163 28.5525C22.1749 29.5939 20.4865 29.5939 19.4451 28.5525L11.4451 20.5525C10.4037 19.5111 10.4037 17.8226 11.4451 16.7812Z" fill="#3C357C"/>
<path fill-rule="evenodd" clip-rule="evenodd" d="M23.217 16.7812C24.2584 17.8226 24.2584 19.5111 23.217 20.5525L15.217 28.5525C14.1756 29.5939 12.4872 29.5939 11.4458 28.5525C10.4044 27.5111 10.4044 25.8226 11.4458 24.7812L19.4458 16.7812C20.4872 15.7398 22.1756 15.7398 23.217 16.7812Z" fill="#3C357C"/>
<path fill-rule="evenodd" clip-rule="evenodd" d="M22.2651 37.9731C25.0595 35.8289 28.4832 34.6667 32.0053 34.6667C35.5275 34.6667 38.9512 35.8289 41.7455 37.9731C44.5398 40.1172 46.5485 43.1235 47.4601 46.5256C47.8413 47.9482 46.9971 49.4105 45.5745 49.7916C44.1519 50.1728 42.6897 49.3286 42.3085 47.906C41.7008 45.6379 40.3617 43.6337 38.4988 42.2043C36.6359 40.7749 34.3534 40.0001 32.0053 40.0001C29.6572 40.0001 27.3747 40.7749 25.5119 42.2043C23.649 43.6337 22.3098 45.6379 21.7021 47.906C21.3209 49.3286 19.8587 50.1728 18.4361 49.7916C17.0136 49.4104 16.1693 47.9482 16.5505 46.5256C17.4621 43.1235 19.4708 40.1172 22.2651 37.9731Z" fill="#3C357C"/>
</svg>
