<svg width="94" height="195" viewBox="0 0 94 195" fill="none" xmlns="http://www.w3.org/2000/svg">
<g opacity="0.85" clip-path="url(#clip0_102_800)">
<rect x="0.285156" y="0.613403" width="92.8546" height="193.447" rx="7.73789" fill="#FFF5F5"/>
<g clip-path="url(#clip1_102_800)">
<path d="M161.237 162.765H-50.7812V162.871H161.237V162.765Z" fill="#EBEBEB"/>
<path d="M89.6693 170.741H85.9844V170.847H89.6693V170.741Z" fill="#EBEBEB"/>
<path d="M44.6905 168.154H4.9668V168.26H44.6905V168.154Z" fill="#EBEBEB"/>
<path d="M49.7141 143.853H-32.1631C-32.8045 143.852 -33.4193 143.596 -33.8724 143.142C-34.3256 142.688 -34.5801 142.073 -34.5801 141.432V26.3355C-34.5745 25.6977 -34.3175 25.0879 -33.865 24.6386C-33.4124 24.1892 -32.8008 23.9365 -32.1631 23.9354H49.7141C50.3562 23.9354 50.9721 24.1905 51.4262 24.6446C51.8802 25.0987 52.1353 25.7145 52.1353 26.3567V141.432C52.1353 142.074 51.8802 142.69 51.4262 143.144C50.9721 143.598 50.3562 143.853 49.7141 143.853ZM-32.1631 24.0202C-32.7764 24.0214 -33.3642 24.2658 -33.7975 24.6998C-34.2307 25.1339 -34.4741 25.7222 -34.4741 26.3355V141.432C-34.4741 142.045 -34.2307 142.633 -33.7975 143.067C-33.3642 143.501 -32.7764 143.746 -32.1631 143.747H49.7141C50.3278 143.746 50.916 143.501 51.35 143.067C51.7839 142.634 52.0282 142.045 52.0293 141.432V26.3355C52.0282 25.7218 51.7839 25.1335 51.35 24.6996C50.916 24.2656 50.3278 24.0214 49.7141 24.0202H-32.1631Z" fill="#EBEBEB"/>
<path d="M141.435 143.853H59.5541C58.9122 143.852 58.2971 143.596 57.8432 143.142C57.3894 142.689 57.1339 142.073 57.1328 141.432V26.3355C57.1395 25.6973 57.3974 25.0876 57.8507 24.6383C58.3039 24.189 58.9159 23.9365 59.5541 23.9354H141.435C142.072 23.9376 142.683 24.1908 143.135 24.6401C143.586 25.0893 143.843 25.6985 143.848 26.3355V141.432C143.848 142.072 143.594 142.687 143.142 143.141C142.69 143.595 142.076 143.851 141.435 143.853ZM59.5541 24.0202C58.9404 24.0214 58.3521 24.2656 57.9182 24.6996C57.4842 25.1335 57.2399 25.7218 57.2388 26.3355V141.432C57.2399 142.045 57.4842 142.634 57.9182 143.067C58.3521 143.501 58.9404 143.746 59.5541 143.747H141.435C142.049 143.746 142.637 143.501 143.071 143.067C143.505 142.634 143.75 142.045 143.751 141.432V26.3355C143.75 25.7218 143.505 25.1335 143.071 24.6996C142.637 24.2656 142.049 24.0214 141.435 24.0202H59.5541Z" fill="#EBEBEB"/>
<path d="M-22.4597 162.765H35.082L35.082 41.1554H-22.4597L-22.4597 162.765Z" fill="#E6E6E6"/>
<path d="M-23.7351 162.765H33.8066L33.8066 41.1554H-23.7351L-23.7351 162.765Z" fill="#F5F5F5"/>
<path d="M31.5117 160.187L31.5117 43.7335H-21.4377L-21.4377 160.187H31.5117Z" fill="#FAFAFA"/>
<path d="M19.317 160.187L5.90048 43.7335H-9.24609L4.17041 160.187H19.317Z" fill="white"/>
<path d="M-22.7866 57.2817L32.8555 57.2817V53.8216L-22.7866 53.8216V57.2817Z" fill="#F5F5F5"/>
<path d="M65.5 162.765V92.2053H42.2671V162.765H65.5Z" fill="#F0F0F0"/>
<path d="M64.2266 114.946V94.2659H43.5463V114.946H64.2266Z" fill="#F5F5F5"/>
<path d="M64.2266 137.484V116.804H43.5463V137.484H64.2266Z" fill="#F5F5F5"/>
<path d="M64.2266 160.021V139.341H43.5463V160.021H64.2266Z" fill="#F5F5F5"/>
<path d="M58.465 93.9949H49.2931C49.2902 94.2769 49.3437 94.5566 49.4503 94.8177C49.5569 95.0788 49.7145 95.316 49.914 95.5154C50.1134 95.7148 50.3506 95.8724 50.6116 95.979C50.8727 96.0856 51.1525 96.1391 51.4345 96.1363H56.3024C56.5852 96.1385 56.8657 96.0848 57.1277 95.9782C57.3897 95.8717 57.6281 95.7143 57.8291 95.5153C58.03 95.3163 58.1897 95.0795 58.2988 94.8186C58.408 94.5577 58.4644 94.2777 58.465 93.9949Z" fill="#E6E6E6"/>
<path d="M58.4649 116.532H49.293C49.293 117.101 49.5184 117.646 49.9199 118.048C50.3214 118.45 50.866 118.677 51.4343 118.678H56.3023C56.5853 118.68 56.8659 118.625 57.1279 118.518C57.3899 118.411 57.6283 118.254 57.8292 118.054C58.0301 117.855 58.1897 117.618 58.2988 117.357C58.4079 117.096 58.4643 116.815 58.4649 116.532Z" fill="#E6E6E6"/>
<path d="M58.4649 139.07H49.293C49.293 139.638 49.5184 140.183 49.9199 140.585C50.3214 140.988 50.866 141.214 51.4343 141.215H56.3023C56.5853 141.217 56.8659 141.163 57.1279 141.056C57.3899 140.949 57.6283 140.791 57.8292 140.592C58.0301 140.392 58.1897 140.155 58.2988 139.894C58.4079 139.633 58.4643 139.353 58.4649 139.07Z" fill="#E6E6E6"/>
<path d="M77.1035 162.765V92.2053H65.4976V162.765H77.1035Z" fill="#F5F5F5"/>
<path d="M71.2223 162.765H133.072V161.03H71.2223V162.765Z" fill="#F0F0F0"/>
<path d="M127.524 107.907H70.3301V161.031H127.524V107.907Z" fill="#FAFAFA"/>
<path d="M81.5174 138.951H116.314C117.957 138.951 119.533 138.298 120.694 137.137C121.856 135.975 122.509 134.399 122.509 132.756C122.509 131.113 121.856 129.537 120.694 128.375C119.533 127.213 117.957 126.561 116.314 126.561H81.5174C79.8744 126.561 78.2986 127.213 77.1368 128.375C75.975 129.537 75.3223 131.113 75.3223 132.756C75.3223 134.399 75.975 135.975 77.1368 137.137C78.2986 138.298 79.8744 138.951 81.5174 138.951ZM116.322 126.976C117.081 126.976 117.833 127.126 118.534 127.416C119.235 127.707 119.872 128.132 120.409 128.669C120.946 129.206 121.372 129.843 121.662 130.544C121.952 131.245 122.102 131.997 122.102 132.756C122.102 133.515 121.952 134.267 121.662 134.968C121.372 135.669 120.946 136.306 120.409 136.843C119.872 137.379 119.235 137.805 118.534 138.096C117.833 138.386 117.081 138.536 116.322 138.536H81.5174C79.9846 138.536 78.5145 137.927 77.4306 136.843C76.3467 135.759 75.7378 134.289 75.7378 132.756C75.7378 131.223 76.3467 129.753 77.4306 128.669C78.5145 127.585 79.9846 126.976 81.5174 126.976H116.322Z" fill="#F0F0F0"/>
<path d="M81.5174 154.365H116.314C117.957 154.365 119.533 153.712 120.694 152.55C121.856 151.388 122.509 149.813 122.509 148.17C122.509 146.527 121.856 144.951 120.694 143.789C119.533 142.627 117.957 141.974 116.314 141.974H81.5174C79.8744 141.974 78.2986 142.627 77.1368 143.789C75.975 144.951 75.3223 146.527 75.3223 148.17C75.3223 149.813 75.975 151.388 77.1368 152.55C78.2986 153.712 79.8744 154.365 81.5174 154.365ZM116.314 142.39C117.086 142.369 117.854 142.503 118.573 142.784C119.292 143.065 119.948 143.487 120.501 144.026C121.055 144.564 121.495 145.208 121.795 145.92C122.095 146.631 122.25 147.395 122.25 148.168C122.25 148.94 122.095 149.704 121.795 150.415C121.495 151.127 121.055 151.771 120.501 152.309C119.948 152.848 119.292 153.27 118.573 153.551C117.854 153.832 117.086 153.966 116.314 153.945H81.5174C80.7455 153.966 79.9773 153.832 79.2581 153.551C78.5388 153.27 77.8832 152.848 77.3298 152.309C76.7765 151.771 76.3366 151.127 76.0363 150.415C75.736 149.704 75.5813 148.94 75.5813 148.168C75.5813 147.395 75.736 146.631 76.0363 145.92C76.3366 145.208 76.7765 144.564 77.3298 144.026C77.8832 143.487 78.5388 143.065 79.2581 142.784C79.9773 142.503 80.7455 142.369 81.5174 142.39H116.314Z" fill="#F0F0F0"/>
<path d="M93.6761 131.42H104.175C104.518 131.419 104.846 131.283 105.089 131.04C105.331 130.798 105.467 130.47 105.469 130.127C105.467 129.784 105.331 129.456 105.089 129.214C104.846 128.971 104.518 128.835 104.175 128.834H93.6761C93.3335 128.835 93.0052 128.971 92.7629 129.214C92.5205 129.456 92.3839 129.784 92.3828 130.127C92.3839 130.47 92.5205 130.798 92.7629 131.04C93.0052 131.283 93.3335 131.419 93.6761 131.42Z" fill="#EBEBEB"/>
<path d="M81.5174 123.537H116.314C117.957 123.537 119.533 122.884 120.694 121.723C121.856 120.561 122.509 118.985 122.509 117.342C122.509 115.699 121.856 114.123 120.694 112.961C119.533 111.8 117.957 111.147 116.314 111.147H81.5174C79.8744 111.147 78.2986 111.8 77.1368 112.961C75.975 114.123 75.3223 115.699 75.3223 117.342C75.3223 118.985 75.975 120.561 77.1368 121.723C78.2986 122.884 79.8744 123.537 81.5174 123.537ZM116.314 111.562C117.847 111.562 119.317 112.171 120.401 113.255C121.485 114.339 122.093 115.809 122.093 117.342C122.093 118.875 121.485 120.345 120.401 121.429C119.317 122.513 117.847 123.122 116.314 123.122H81.5174C79.9846 123.122 78.5145 122.513 77.4306 121.429C76.3467 120.345 75.7378 118.875 75.7378 117.342C75.7378 115.809 76.3467 114.339 77.4306 113.255C78.5145 112.171 79.9846 111.562 81.5174 111.562H116.314Z" fill="#F0F0F0"/>
<path d="M93.6761 116.007H104.175C104.518 116.005 104.846 115.869 105.089 115.627C105.331 115.384 105.467 115.056 105.469 114.713C105.463 114.374 105.324 114.05 105.082 113.812C104.84 113.574 104.515 113.441 104.175 113.441H93.6761C93.3368 113.441 93.011 113.574 92.769 113.812C92.5271 114.05 92.3884 114.374 92.3828 114.713C92.3839 115.056 92.5205 115.384 92.7629 115.627C93.0052 115.869 93.3335 116.005 93.6761 116.007Z" fill="#EBEBEB"/>
<path d="M93.6761 146.829H104.175C104.515 146.83 104.84 146.696 105.082 146.458C105.324 146.22 105.463 145.897 105.469 145.557C105.462 145.218 105.323 144.896 105.081 144.658C104.839 144.42 104.514 144.286 104.175 144.285H93.6761C93.3371 144.286 93.0119 144.42 92.7702 144.658C92.5285 144.896 92.3895 145.218 92.3828 145.557C92.3884 145.897 92.5271 146.22 92.769 146.458C93.011 146.696 93.3368 146.83 93.6761 146.829Z" fill="#EBEBEB"/>
<path d="M69.1471 107.907L127.516 107.907V105.206H69.1471V107.907Z" fill="#F0F0F0"/>
<path d="M85.7608 62.6882C87.0626 63.3412 90.5906 62.6373 89.416 65.0247C88.7395 66.2752 87.9306 67.4495 87.0032 68.5272C85.6887 70.1513 85.9389 71.9195 87.4909 72.5471C87.8238 72.6612 88.1177 72.867 88.3389 73.1407C89.0556 74.1669 87.3679 75.5408 86.5368 76.5669C85.7057 77.5931 85.3749 78.6023 85.9855 79.3656C86.664 80.2136 88.0718 79.8956 89.1913 80.15C91.8797 80.7649 89.1149 84.4752 89.399 86.3791C89.5941 87.6851 90.6711 88.0498 92.0917 88.2322C93.2662 88.3848 94.8309 88.4908 94.8946 89.6908C94.9539 90.734 93.597 91.9128 93.2408 93.0068C93.0718 93.4775 93.0077 93.9795 93.0531 94.4776C93.0986 94.9757 93.2523 95.4578 93.5037 95.8902C93.7423 96.2547 94.054 96.5658 94.4189 96.8037C94.7838 97.0416 95.1941 97.2013 95.6239 97.2726C96.9554 97.5525 98.9695 97.2726 99.0671 98.7652C99.1095 99.4352 98.643 100.037 98.9653 100.648C99.1439 100.906 99.3763 101.121 99.6464 101.28C99.9166 101.439 100.218 101.537 100.53 101.568C101.805 101.763 103.104 101.74 104.372 101.5C105.936 101.212 108.247 99.8338 107.399 98.5065C107.253 98.3162 107.071 98.1567 106.863 98.0374C106.654 97.918 106.425 97.8411 106.187 97.8111C105.813 97.7348 104.719 97.8535 104.58 97.5991C104.44 97.3447 104.817 96.3652 104.83 96.0132C104.868 95.0358 104.714 94.0603 104.376 93.1425C103.944 91.9425 103.255 90.8513 102.358 89.9453C101.984 89.5679 101.395 89.2922 101.319 88.7452C101.242 88.1982 101.586 87.5961 101.967 87.0491C102.565 86.201 103.494 85.4038 103.829 84.5049C104.355 83.0886 103.078 82.6391 101.895 82.3168C100.827 82.0243 99.419 81.6511 99.7752 80.3536C100.038 79.4164 101.221 78.6574 101.573 77.733C102.052 76.5076 100.89 76.4609 100.064 76.0369C98.9823 75.4687 98.7109 74.451 99.101 73.1662C99.7498 71.046 103.638 68.048 101.645 66.6699C101.141 66.318 100.67 66.2035 100.373 65.6734C100.076 65.1434 99.9999 64.4013 99.5759 63.901C98.9059 63.0911 97.5193 62.9554 96.7985 62.2048C95.3101 60.6613 98.5201 57.9263 95.59 57.2733C94.9713 57.1937 94.3855 56.9491 93.8938 56.5651C93.6267 56.315 93.4062 55.1065 93.1051 55.0217C91.7609 54.6485 89.3397 57.2563 88.5764 58.0578C87.6478 59.0246 84.2173 61.908 85.7608 62.6882Z" fill="#E0E0E0"/>
<path d="M117.759 95.3179C117.759 95.3179 117.335 105.211 101.145 105.211C84.9553 105.211 84.5312 95.3179 84.5312 95.3179H117.759Z" fill="#F0F0F0"/>
<path d="M55.2261 181.914C100.633 181.914 137.442 179.765 137.442 177.114C137.442 174.463 100.633 172.314 55.2261 172.314C9.81928 172.314 -26.9902 174.463 -26.9902 177.114C-26.9902 179.765 9.81928 181.914 55.2261 181.914Z" fill="#F5F5F5"/>
<g opacity="0.2">
<path opacity="0.2" d="M102.178 173.565L75.1709 123.647L48.1641 173.565H102.178Z" fill="#407BFF"/>
<path opacity="0.2" d="M102.178 89.118L75.1709 139.031L48.1641 89.118H102.178Z" fill="#407BFF"/>
</g>
<path d="M80.1198 118.589L76.1678 125.891C76.0708 126.071 75.9269 126.221 75.7515 126.326C75.5761 126.43 75.3756 126.486 75.1713 126.486C74.967 126.486 74.7665 126.43 74.591 126.326C74.4156 126.221 74.2718 126.071 74.1748 125.891L70.2228 118.589C69.8665 117.929 69.6878 117.188 69.7042 116.438C69.7205 115.688 69.9314 114.955 70.3162 114.311C70.7009 113.668 71.2463 113.135 71.899 112.765C72.5516 112.396 73.2891 112.202 74.0391 112.203H76.3246C77.0729 112.206 77.8077 112.402 78.4574 112.773C79.1071 113.144 79.6495 113.677 80.0318 114.321C80.4141 114.964 80.6231 115.695 80.6385 116.443C80.6539 117.191 80.4752 117.931 80.1198 118.589Z" fill="#407BFF"/>
<path d="M75.6004 160.963L87.8762 166.009C88.1158 166.11 88.3133 166.29 88.4355 166.52C88.5578 166.749 88.5974 167.014 88.5476 167.269C88.4979 167.524 88.3619 167.754 88.1624 167.921C87.9629 168.088 87.7121 168.181 87.4522 168.184H62.9132C62.6533 168.181 62.4025 168.088 62.203 167.921C62.0036 167.754 61.8675 167.524 61.8178 167.269C61.7681 167.014 61.8076 166.749 61.9299 166.52C62.0522 166.29 62.2497 166.11 62.4892 166.009L74.7311 160.963C74.8688 160.905 75.0165 160.875 75.1658 160.875C75.315 160.875 75.4628 160.905 75.6004 160.963Z" fill="#407BFF"/>
<path d="M75.1689 151.363C76.0377 151.363 76.7421 150.658 76.7421 149.789C76.7421 148.921 76.0377 148.216 75.1689 148.216C74.3 148.216 73.5957 148.921 73.5957 149.789C73.5957 150.658 74.3 151.363 75.1689 151.363Z" fill="#407BFF"/>
<path d="M75.1712 134.168C75.6185 134.168 75.9812 133.805 75.9812 133.358C75.9812 132.911 75.6185 132.548 75.1712 132.548C74.7239 132.548 74.3613 132.911 74.3613 133.358C74.3613 133.805 74.7239 134.168 75.1712 134.168Z" fill="#407BFF"/>
<path d="M75.1702 142.11C75.6783 142.11 76.0903 141.698 76.0903 141.19C76.0903 140.682 75.6783 140.27 75.1702 140.27C74.662 140.27 74.25 140.682 74.25 141.19C74.25 141.698 74.662 142.11 75.1702 142.11Z" fill="#407BFF"/>
<path d="M102.042 171.102H48.2993C47.6469 171.104 47.022 171.364 46.5612 171.826C46.1003 172.288 45.841 172.913 45.8398 173.565C45.8421 174.217 46.1019 174.841 46.5627 175.302C47.0234 175.763 47.6477 176.023 48.2993 176.025H102.042C102.693 176.023 103.317 175.763 103.778 175.302C104.239 174.841 104.499 174.217 104.501 173.565C104.5 172.913 104.241 172.288 103.78 171.826C103.319 171.364 102.694 171.104 102.042 171.102Z" fill="#407BFF"/>
<path d="M102.042 86.6588H48.2993C47.6477 86.661 47.0234 86.9209 46.5627 87.3816C46.1019 87.8424 45.8421 88.4666 45.8398 89.1182C45.8421 89.7698 46.1019 90.3941 46.5627 90.8548C47.0234 91.3156 47.6477 91.5754 48.2993 91.5776H102.042C102.693 91.5754 103.317 91.3156 103.778 90.8548C104.239 90.3941 104.499 89.7698 104.501 89.1182C104.499 88.4666 104.239 87.8424 103.778 87.3816C103.317 86.9209 102.693 86.661 102.042 86.6588Z" fill="#407BFF"/>
<path d="M31.7453 172.636L28.7559 171.665L30.6131 164.613L33.6026 165.584L31.7453 172.636Z" fill="#FF8B7B"/>
<path d="M28.7106 171.266L32.0689 172.356C32.1256 172.373 32.1736 172.411 32.2028 172.462C32.2321 172.514 32.2403 172.575 32.2258 172.632L31.5262 175.346C31.4814 175.485 31.3831 175.602 31.2528 175.669C31.1225 175.737 30.9708 175.75 30.8307 175.706C29.6689 175.308 29.1346 175.057 27.6547 174.578C26.743 174.281 23.7494 173.51 22.4942 173.103C21.2391 172.695 21.6758 171.466 22.244 171.525C24.7882 171.792 27.078 171.674 28.1381 171.283C28.3218 171.215 28.5231 171.209 28.7106 171.266Z" fill="#263238"/>
<path opacity="0.2" d="M33.6001 165.589L30.6107 164.613L29.6523 168.252L32.646 169.223L33.6001 165.589Z" fill="black"/>
<path d="M41.7747 94.2065C41.7747 94.2065 36.4107 119.034 35.1513 127.96C33.7732 137.734 28.5957 167.086 28.5957 167.086L34.1463 168.621C34.1463 168.621 41.8384 140.155 44.0857 130.652C46.524 120.336 52.9905 94.1853 52.9905 94.1853L41.7747 94.2065Z" fill="#407BFF"/>
<path opacity="0.3" d="M48.4048 102.348C46.2846 107.156 45.2372 117.613 46.0599 122.426C47.5609 116.256 49.3673 108.92 50.7624 103.276C50.2917 101.64 49.5115 99.8375 48.4048 102.348Z" fill="black"/>
<path d="M34.2868 168.731L28.3418 167.094L28.4605 164.673L35.1518 166.984L34.2868 168.731Z" fill="#263238"/>
<path d="M27.4786 171.445C27.7551 171.525 28.0394 171.576 28.3267 171.597C28.3409 171.598 28.355 171.595 28.3675 171.588C28.38 171.581 28.3904 171.571 28.3974 171.559C28.4045 171.547 28.4079 171.533 28.4074 171.518C28.4069 171.504 28.4025 171.49 28.3945 171.479C28.3182 171.381 27.6609 170.529 27.2496 170.554C27.2023 170.556 27.1563 170.571 27.1162 170.596C27.0761 170.621 27.0432 170.657 27.0206 170.698C26.9781 170.76 26.9526 170.831 26.9467 170.906C26.9407 170.98 26.9545 171.055 26.9867 171.122C27.107 171.285 27.2815 171.399 27.4786 171.445ZM28.1528 171.445C27.5846 171.377 27.1945 171.233 27.1012 171.05C27.0817 171.007 27.0741 170.96 27.0793 170.913C27.0846 170.866 27.1024 170.821 27.1309 170.783C27.1416 170.763 27.1574 170.745 27.1767 170.733C27.196 170.72 27.2182 170.713 27.2411 170.711C27.4616 170.686 27.8772 171.101 28.1528 171.432V171.445Z" fill="#263238"/>
<path d="M28.2971 171.593H28.331C28.3434 171.591 28.3548 171.585 28.3645 171.577C28.3741 171.569 28.3815 171.558 28.3862 171.547C28.3862 171.513 28.7466 170.673 28.5388 170.275C28.513 170.224 28.4757 170.181 28.4301 170.148C28.3844 170.115 28.3316 170.093 28.2759 170.084C28.2157 170.066 28.1512 170.068 28.0927 170.091C28.0343 170.115 27.9853 170.157 27.9536 170.211C27.7798 170.516 28.0215 171.284 28.2632 171.559L28.2971 171.593ZM28.2971 170.249C28.3255 170.257 28.3518 170.271 28.3745 170.29C28.3971 170.309 28.4155 170.333 28.4286 170.359C28.4996 170.701 28.4595 171.056 28.3141 171.373C28.1088 171.055 28.0315 170.672 28.0978 170.3C28.0978 170.262 28.1572 170.219 28.2632 170.241L28.2971 170.249Z" fill="#263238"/>
<path d="M47.4818 70.6345C47.3207 71.0161 47.185 71.3045 47.0366 71.6268C46.8882 71.949 46.727 72.2459 46.5702 72.5512C46.2564 73.166 45.9256 73.7639 45.5822 74.3618C44.8883 75.5624 44.1237 76.7206 43.2924 77.8304C42.4414 78.9781 41.4984 80.0544 40.4725 81.0489C39.3796 82.1247 38.1405 83.0411 36.7919 83.7712L36.6859 83.8263C36.5143 83.9149 36.3318 83.9805 36.1431 84.0213C35.1773 84.2222 34.177 84.1829 33.23 83.9069C32.4431 83.6714 31.6947 83.3229 31.008 82.8722C29.8561 82.0976 28.8221 81.1607 27.938 80.0905C27.1167 79.1146 26.3697 78.0785 25.7033 76.9908C25.0453 75.922 24.4602 74.8099 23.9521 73.6621C23.8212 73.3586 23.8042 73.018 23.9041 72.7029C24.0041 72.3878 24.2143 72.1193 24.4962 71.9467C24.7781 71.774 25.1128 71.7088 25.4389 71.763C25.765 71.8172 26.0606 71.9871 26.2716 72.2416L26.314 72.2925C27.0136 73.1406 27.7726 74.0438 28.5359 74.8664C29.2797 75.6855 30.0696 76.4613 30.902 77.1901C31.6377 77.857 32.4557 78.427 33.336 78.8863C33.6651 79.0555 34.0184 79.1728 34.3834 79.234C34.5878 79.272 34.7987 79.2544 34.994 79.1831L34.3452 79.4333C35.2215 78.8424 36.0207 78.1444 36.724 77.3555C37.4897 76.4955 38.198 75.5861 38.8442 74.6332C39.5142 73.6579 40.1503 72.636 40.7481 71.5844C41.0534 71.0628 41.346 70.5327 41.6217 69.9942L42.0457 69.1928C42.1771 68.9341 42.3213 68.6373 42.4231 68.4295L42.4485 68.3702C42.7576 67.7178 43.3103 67.2128 43.9878 66.9636C44.6653 66.7144 45.4135 66.741 46.0717 67.0376C46.7298 67.3341 47.2453 67.8771 47.5074 68.5497C47.7695 69.2223 47.7573 69.9708 47.4734 70.6345H47.4818Z" fill="#263238"/>
<path opacity="0.3" d="M40.5484 76.3926C41.8798 72.8562 44.7082 72.7968 45.9336 73.7339C45.8446 73.8993 45.7513 74.0647 45.658 74.23C44.9928 75.3877 44.2638 76.5075 43.4742 77.5842C42.6639 78.6919 41.7724 79.7379 40.807 80.7136C40.5017 81.0146 40.1879 81.3115 39.8614 81.5998C39.7491 79.8359 39.9824 78.067 40.5484 76.3926Z" fill="black"/>
<path d="M23.848 73.8823L21.0918 73.984L21.7787 71.037C22.7277 71.0841 23.6695 71.2261 24.5901 71.461C24.7577 71.5118 24.911 71.6013 25.0376 71.7223C25.1642 71.8433 25.2605 71.9925 25.3187 72.1576C25.3769 72.3228 25.3954 72.4994 25.3727 72.673C25.35 72.8467 25.2867 73.0125 25.188 73.1572C25.0389 73.3764 24.8394 73.5566 24.6062 73.6828C24.3731 73.8089 24.1131 73.8773 23.848 73.8823Z" fill="#FF8B7B"/>
<path d="M25.3891 71.3932C25.1186 71.1787 24.8089 71.0188 24.4774 70.9225C24.2484 72.1268 22.7812 74.1579 22.7812 74.1579H23.9304C24.0782 74.1583 24.2244 74.1263 24.3585 74.064C24.4925 74.0017 24.6113 73.9107 24.7064 73.7975L25.512 72.8307C25.6003 72.7291 25.6672 72.6108 25.7089 72.4829C25.7506 72.355 25.7662 72.22 25.7547 72.0859C25.7432 71.9518 25.705 71.8214 25.6421 71.7024C25.5793 71.5834 25.4933 71.4783 25.3891 71.3932Z" fill="#407BFF"/>
<path d="M18.9785 72.6276L19.7503 70.5498L21.7687 71.0417L21.0817 73.9845L18.9785 72.6276Z" fill="#FF8B7B"/>
<path d="M53.6371 174.01H50.495L50.3848 166.73H53.5269L53.6371 174.01Z" fill="#FF8B7B"/>
<path d="M50.326 173.645H53.8582C53.8877 173.644 53.9172 173.649 53.9449 173.659C53.9726 173.67 53.998 173.685 54.0196 173.705C54.0413 173.725 54.0588 173.749 54.0711 173.776C54.0834 173.803 54.0903 173.832 54.0914 173.862L54.261 176.656C54.261 176.803 54.2032 176.944 54.1001 177.049C53.997 177.154 53.8568 177.214 53.7098 177.216C52.4801 177.195 51.8949 177.123 50.3175 177.123C49.3634 177.123 46.1704 177.22 44.8517 177.22C43.5329 177.22 43.5796 175.914 44.1266 175.795C46.6369 175.269 48.8758 174.523 49.762 173.84C49.9214 173.712 50.121 173.643 50.326 173.645Z" fill="#263238"/>
<path opacity="0.2" d="M53.5311 166.734H50.3848L50.4441 170.486H53.5862L53.5311 166.734Z" fill="black"/>
<path d="M47.9048 94.2065C47.9048 94.2065 46.7048 121.519 47.2136 130.521C47.7733 140.376 48.9437 169.579 48.9437 169.579H54.7021C54.7021 169.579 56.1523 141.169 56.5 131.416C56.8774 120.815 58.5863 94.2065 58.5863 94.2065H47.9048Z" fill="#407BFF"/>
<path d="M54.9358 169.579H48.7152L48.2402 167.264L55.1054 167.607L54.9358 169.579Z" fill="#263238"/>
<path d="M49.2115 174.193C49.4973 174.185 49.7815 174.148 50.0596 174.082C50.073 174.078 50.085 174.07 50.0947 174.06C50.1043 174.049 50.1112 174.037 50.1147 174.023C50.1162 174.009 50.1143 173.996 50.1091 173.983C50.104 173.97 50.0957 173.959 50.085 173.951C49.9832 173.879 49.0928 173.272 48.7069 173.425C48.664 173.442 48.6261 173.47 48.5965 173.505C48.5669 173.541 48.5465 173.583 48.5373 173.629C48.5179 173.697 48.5163 173.77 48.5326 173.84C48.549 173.91 48.5826 173.974 48.6306 174.027C48.7974 174.152 49.0041 174.211 49.2115 174.193ZM49.8476 173.976C49.2836 174.087 48.8723 174.07 48.7239 173.925C48.6934 173.89 48.6726 173.847 48.6637 173.801C48.6548 173.755 48.658 173.707 48.673 173.663C48.676 173.64 48.6851 173.618 48.6993 173.601C48.7135 173.583 48.7322 173.569 48.7535 173.561C48.9613 173.48 49.4829 173.743 49.8476 173.976Z" fill="#263238"/>
<path d="M50.0358 174.082C50.0468 174.086 50.0587 174.086 50.0697 174.082C50.0804 174.076 50.0894 174.068 50.0961 174.057C50.1027 174.047 50.1068 174.035 50.1079 174.023C50.1079 173.985 50.18 173.082 49.862 172.776C49.8216 172.737 49.7727 172.707 49.719 172.689C49.6654 172.672 49.6083 172.667 49.5524 172.674C49.4903 172.677 49.4308 172.7 49.3832 172.74C49.3356 172.78 49.3026 172.834 49.2895 172.895C49.2132 173.238 49.6839 173.896 49.9976 174.082C50.0101 174.086 50.0234 174.086 50.0358 174.082ZM49.6118 172.81C49.6409 172.809 49.6698 172.815 49.6968 172.826C49.7238 172.837 49.7483 172.853 49.7687 172.874C49.9438 173.176 50.0167 173.527 49.9764 173.874C49.7051 173.641 49.3913 173.141 49.4379 172.916C49.4379 172.874 49.4718 172.823 49.5778 172.81H49.6118Z" fill="#263238"/>
<path d="M60.159 68.8578C60.206 68.5927 60.1991 68.3209 60.1386 68.0585C60.0781 67.7962 59.9653 67.5487 59.807 67.331C59.6486 67.1132 59.448 66.9297 59.217 66.7913C58.986 66.6529 58.7296 66.5626 58.4629 66.5256H58.4289C57.4155 66.3772 56.1434 66.2246 54.8967 66.1652C52.517 66.0294 50.1314 66.0294 47.7517 66.1652C46.6535 66.267 45.5806 66.4493 44.7241 66.6147H44.6902C44.1547 66.7228 43.6588 66.9751 43.2561 67.3442C42.8533 67.7133 42.5589 68.1853 42.4046 68.7094C41.3784 72.1653 40.153 79.2213 41.7558 94.2025H58.5689C58.6876 92.7014 58.3526 87.8165 58.5985 81.5959C58.8443 77.3207 59.3655 73.0659 60.159 68.8578Z" fill="#263238"/>
<path opacity="0.3" d="M59.9979 69.782C59.6502 71.792 59.222 74.527 58.9251 77.4147C58.9251 77.4147 57.3901 74.404 57.1102 71.8301C56.8304 69.2562 59.0396 69.0612 59.9979 69.782Z" fill="black"/>
<g opacity="0.2">
<path opacity="0.2" d="M48.7259 70.1805C48.691 70.1789 48.6576 70.166 48.6307 70.1437C48.6038 70.1215 48.5848 70.091 48.5767 70.0571C48.5686 70.0231 48.5717 69.9874 48.5856 69.9554C48.5995 69.9234 48.6234 69.8967 48.6538 69.8795L53.8949 67.1614C53.9322 67.1432 53.975 67.1402 54.0145 67.1528C54.054 67.1654 54.0871 67.1928 54.1069 67.2292C54.1264 67.2669 54.1302 67.3108 54.1175 67.3513C54.1047 67.3918 54.0766 67.4256 54.0391 67.4455L48.798 70.1551C48.7758 70.1681 48.7513 70.1768 48.7259 70.1805Z" fill="white"/>
<path opacity="0.2" d="M51.125 70.4267C51.1043 70.4275 51.0837 70.4238 51.0646 70.4157C51.0455 70.4077 51.0285 70.3955 51.0147 70.38L48.1397 67.5262C48.1114 67.4957 48.0957 67.4555 48.0957 67.4139C48.0957 67.3722 48.1114 67.3321 48.1397 67.3015C48.1698 67.2722 48.2101 67.2559 48.2521 67.2559C48.2941 67.2559 48.3344 67.2722 48.3645 67.3015L51.2352 70.1595C51.2645 70.1896 51.2809 70.2299 51.2809 70.2719C51.2809 70.3139 51.2645 70.3542 51.2352 70.3843C51.2206 70.3983 51.2033 70.4093 51.1844 70.4166C51.1654 70.4238 51.1452 70.4273 51.125 70.4267Z" fill="white"/>
<path opacity="0.2" d="M54.9117 66.1607C52.5333 66.0249 50.1492 66.0249 47.7709 66.1607H47.6522C47.5944 66.3789 47.5808 66.6064 47.6121 66.83C47.6434 67.0535 47.719 67.2685 47.8345 67.4625C48.2331 68.0985 49.0685 68.4547 50.3236 68.5225H50.7943C54.1866 68.5225 55.4968 66.4617 55.552 66.3727L55.6707 66.1819L54.9117 66.1607Z" fill="white"/>
</g>
<path d="M48.1115 66.1353C50.1892 65.6435 50.5539 64.3586 50.414 62.9466C50.381 62.5929 50.3258 62.2417 50.2486 61.895L52.8522 59.7324L54.7646 58.1465C54.2345 60.449 53.6366 64.6427 55.1886 66.1777C55.1886 66.1777 53.9165 68.2979 50.3419 68.1113C47.3439 67.946 48.1115 66.1353 48.1115 66.1353Z" fill="#FF8B7B"/>
<path opacity="0.2" d="M50.2461 61.8951C50.3233 62.2418 50.3785 62.5931 50.4115 62.9467C51.3825 62.7517 52.6801 61.717 52.8158 60.7248C52.8635 60.3963 52.8748 60.0635 52.8497 59.7325L50.2461 61.8951Z" fill="black"/>
<path d="M48.8639 50.8616C47.4518 51.7096 47.6766 53.8298 47.2949 55.3479C48.1939 55.4369 49.6102 53.8383 49.6102 53.8383L50.4582 51.4086L48.8639 50.8616Z" fill="#263238"/>
<path d="M56.3752 55.1274C55.472 58.1211 55.1031 59.9147 53.1864 61.1656C52.57 61.5778 51.8527 61.8137 51.1119 61.8476C50.3712 61.8815 49.6353 61.7123 48.9838 61.3581C48.3323 61.004 47.7901 60.4785 47.4157 59.8384C47.0413 59.1984 46.8491 58.4681 46.8598 57.7267C46.8598 54.8729 48.327 50.4545 51.6005 49.8439C52.3061 49.6931 53.0389 49.7306 53.7255 49.9525C54.412 50.1745 55.028 50.5731 55.5118 51.1084C55.9956 51.6437 56.33 52.2969 56.4815 53.0023C56.6331 53.7077 56.5964 54.4406 56.3752 55.1274Z" fill="#FF8B7B"/>
<path d="M53.5532 57.6675C55.6734 55.2081 53.0231 53.9953 55.1899 52.2865C52.7517 52.401 48.7361 52.2271 48.0195 50.5564C47.3029 48.8857 49.5079 46.6213 51.3439 46.4093C53.4641 46.1634 53.0062 48.7882 53.0062 48.7882C53.0062 48.7882 61.118 48.2836 58.5441 51.7564C60.4946 51.6377 59.9561 54.7925 56.5638 57.4555C55.7115 57.7396 53.5532 57.6675 53.5532 57.6675Z" fill="#263238"/>
<path d="M58.0566 51.7987C58.0566 51.7987 59.7274 51.3026 59.6722 49.9796C60.2744 50.3952 60.338 51.6588 58.0566 51.7987Z" fill="#263238"/>
<path d="M56.8691 58.2525C56.3811 58.8554 55.6993 59.2704 54.9397 59.4271C53.9772 59.601 53.7524 58.7105 54.2316 57.8412C54.6556 57.061 55.686 56.0306 56.5511 56.2468C57.4161 56.4631 57.4839 57.4935 56.8691 58.2525Z" fill="#FF8B7B"/>
<path d="M51.5464 55.0512C51.487 55.2971 51.3089 55.4752 51.1435 55.4371C50.9782 55.3989 50.8976 55.1784 50.957 54.9325C51.0163 54.6865 51.1944 54.5084 51.3555 54.5424C51.5167 54.5763 51.6057 54.801 51.5464 55.0512Z" fill="#263238"/>
<path d="M48.7329 54.4869C48.6735 54.7328 48.4954 54.9109 48.3343 54.877C48.1732 54.8431 48.0841 54.6183 48.1435 54.3724C48.2028 54.1265 48.3809 53.9484 48.5421 53.9823C48.7032 54.0162 48.7922 54.241 48.7329 54.4869Z" fill="#263238"/>
<path d="M49.5985 54.7883C49.1199 55.4864 48.5493 56.1168 47.9023 56.6626C48.0465 56.818 48.2229 56.9399 48.4193 57.0198C48.6156 57.0996 48.8271 57.1355 49.0388 57.1248L49.5985 54.7883Z" fill="#FF5652"/>
<path d="M49.9038 57.9898C50.1973 58.0174 50.4934 57.985 50.774 57.8946C51.0547 57.8042 51.314 57.6577 51.5363 57.464C51.5435 57.4576 51.5493 57.4498 51.5533 57.441C51.5572 57.4322 51.5593 57.4227 51.5593 57.4131C51.5593 57.4035 51.5572 57.394 51.5533 57.3852C51.5493 57.3764 51.5435 57.3686 51.5363 57.3622C51.5221 57.3485 51.5031 57.3408 51.4833 57.3408C51.4635 57.3408 51.4445 57.3485 51.4303 57.3622C51.1866 57.5694 50.8982 57.7175 50.5878 57.7947C50.2774 57.872 49.9533 57.8763 49.6409 57.8075C49.6314 57.8056 49.6216 57.8057 49.6122 57.8078C49.6027 57.8098 49.5938 57.8137 49.5859 57.8192C49.578 57.8247 49.5713 57.8318 49.5661 57.84C49.561 57.8482 49.5576 57.8573 49.556 57.8668C49.5523 57.8865 49.5564 57.9068 49.5675 57.9235C49.5786 57.9402 49.5958 57.9518 49.6154 57.9559L49.9038 57.9898Z" fill="#263238"/>
<path d="M52.6305 54.364C52.6539 54.3718 52.6792 54.3718 52.7026 54.364C52.7204 54.3562 52.7364 54.345 52.7498 54.3308C52.7631 54.3167 52.7735 54.3001 52.7802 54.2818C52.7869 54.2636 52.7899 54.2442 52.789 54.2248C52.788 54.2054 52.7832 54.1864 52.7747 54.169C52.6836 53.9521 52.5404 53.7612 52.3576 53.6132C52.1749 53.4653 51.9583 53.3648 51.7273 53.3209C51.6881 53.316 51.6485 53.3265 51.6168 53.3502C51.5852 53.374 51.564 53.409 51.5577 53.4481C51.5554 53.4676 51.5569 53.4874 51.5622 53.5063C51.5676 53.5252 51.5766 53.5429 51.5889 53.5582C51.6011 53.5736 51.6163 53.5864 51.6335 53.5959C51.6507 53.6054 51.6696 53.6114 51.6892 53.6135C51.8688 53.6514 52.0366 53.7321 52.1783 53.8487C52.32 53.9654 52.4315 54.1145 52.5033 54.2834C52.5157 54.3067 52.534 54.3264 52.5563 54.3405C52.5786 54.3546 52.6041 54.3627 52.6305 54.364Z" fill="#263238"/>
<path d="M48.0369 52.7992C48.0598 52.8075 48.0844 52.8095 48.1083 52.8051C48.1321 52.8006 48.1543 52.7898 48.1726 52.7738C48.319 52.6519 48.4918 52.5658 48.6773 52.5224C48.8628 52.479 49.0559 52.4794 49.2412 52.5236C49.2598 52.5297 49.2795 52.5321 49.2991 52.5307C49.3187 52.5292 49.3378 52.5239 49.3553 52.515C49.3728 52.5061 49.3884 52.4939 49.4012 52.479C49.414 52.4641 49.4238 52.4469 49.4299 52.4282C49.436 52.4096 49.4384 52.3899 49.4369 52.3703C49.4354 52.3507 49.4301 52.3316 49.4213 52.3141C49.4124 52.2966 49.4002 52.281 49.3853 52.2682C49.3704 52.2554 49.3531 52.2456 49.3345 52.2395C49.1024 52.1822 48.8602 52.1795 48.6269 52.2318C48.3937 52.284 48.1757 52.3897 47.9903 52.5406C47.9594 52.5648 47.9395 52.6003 47.9347 52.6392C47.9299 52.6781 47.9408 52.7174 47.9648 52.7484C47.982 52.7734 48.0076 52.7914 48.0369 52.7992Z" fill="#263238"/>
<path d="M60.3138 67.6494L60.6657 68.1285L60.9837 68.578C61.1958 68.8791 61.3866 69.1802 61.5859 69.4812C61.9717 70.0876 62.3364 70.7024 62.6884 71.3215C63.3937 72.5591 64.0335 73.833 64.605 75.1379C64.9018 75.7824 65.1562 76.4524 65.4276 77.1096C65.699 77.7669 65.928 78.4496 66.1358 79.1365C66.5826 80.5037 66.9507 81.8955 67.2383 83.3048L67.2722 83.4659C67.3344 83.7505 67.3398 84.0446 67.2882 84.3313C67.2365 84.618 67.1288 84.8917 66.9711 85.1366C66.4248 85.9752 65.7767 86.7429 65.0418 87.4222C64.2858 88.1149 63.4277 88.687 62.4975 89.1183C61.5793 89.5463 60.5963 89.8185 59.5887 89.924C59.0956 89.9748 58.5991 89.9833 58.1045 89.9494C57.8586 89.9494 57.6127 89.9028 57.3667 89.8646L56.9936 89.7925L56.5695 89.6865C56.5196 89.6744 56.4765 89.6432 56.4496 89.5995C56.4226 89.5559 56.4139 89.5033 56.4254 89.4533L57.0105 86.9939C57.0105 86.9727 57.1208 86.9685 57.1886 86.9515L57.4218 86.9049C57.583 86.8709 57.7399 86.8328 57.901 86.7904C58.2151 86.7053 58.5226 86.5976 58.8212 86.4681C59.3991 86.2309 59.9402 85.9125 60.4282 85.5225C61.3831 84.7367 62.146 83.7432 62.6587 82.6179L62.3915 84.4497C62.0269 83.2497 61.641 82.0624 61.1746 80.8878C60.7081 79.7132 60.1993 78.5598 59.6438 77.4234C59.0883 76.287 58.4947 75.1633 57.8544 74.0693C57.5406 73.5223 57.2098 72.9838 56.8791 72.4495L56.3745 71.6608L56.1243 71.2791L55.8911 70.9399L55.8063 70.8127C55.3868 70.215 55.2219 69.4751 55.348 68.7558C55.474 68.0365 55.8806 67.3968 56.4784 66.9773C57.0761 66.5578 57.816 66.393 58.5353 66.519C59.2545 66.645 59.8943 67.0516 60.3138 67.6494Z" fill="#263238"/>
<path d="M54.7085 89.4406L53.7969 90.9332L57.7531 90.7764C57.7531 90.7764 58.792 88.1134 57.3757 87.6936L56.8245 87.842C55.9428 88.0889 55.187 88.66 54.7085 89.4406Z" fill="#FF8B7B"/>
<path d="M56.338 87.3501C56.053 87.5428 55.8082 87.789 55.6172 88.0752C56.6942 88.6603 58.1953 90.6533 58.1953 90.6533L58.543 89.5593C58.5873 89.4182 58.5999 89.2691 58.5801 89.1225C58.5603 88.976 58.5086 88.8355 58.4285 88.7112L57.7713 87.6511C57.6995 87.5344 57.6046 87.4336 57.4925 87.3548C57.3804 87.2759 57.2535 87.2207 57.1194 87.1926C56.9853 87.1644 56.8468 87.1638 56.7125 87.1909C56.5782 87.218 56.4508 87.2721 56.338 87.3501Z" fill="#407BFF"/>
<path d="M54.1446 93.2315L57.4054 92.9432L57.7531 90.7764L53.7969 90.9333L54.1446 93.2315Z" fill="#FF8B7B"/>
<path d="M14.1186 41.4649L13.9023 41.1002C14.5242 40.7317 15.1718 40.4086 15.8402 40.1334L16.0013 40.5278C15.3514 40.793 14.7221 41.1063 14.1186 41.4649Z" fill="#407BFF"/>
<path d="M7.92794 48.9531L7.50391 48.8089C8.50911 46.0255 10.3278 43.6086 12.7238 41.8717L12.974 42.2152C10.6536 43.9035 8.89526 46.2514 7.92794 48.9531Z" fill="#407BFF"/>
<path d="M21.3858 66.8347C28.5941 66.8347 34.4376 60.9912 34.4376 53.7829C34.4376 46.5746 28.5941 40.7311 21.3858 40.7311C14.1775 40.7311 8.33398 46.5746 8.33398 53.7829C8.33398 60.9912 14.1775 66.8347 21.3858 66.8347Z" fill="#407BFF"/>
<path opacity="0.6" d="M32.2883 53.7831C32.2875 56.3266 31.3974 58.7897 29.7721 60.7461C28.1468 62.7025 25.8887 64.029 23.3885 64.4961C20.8883 64.9632 18.3035 64.5414 16.0815 63.3038C13.8595 62.0662 12.1401 60.0906 11.221 57.7191C10.302 55.3475 10.241 52.7292 11.0487 50.3174C11.8564 47.9057 13.482 45.8522 15.644 44.5125C17.806 43.1728 20.3684 42.6312 22.8876 42.9814C25.4068 43.3317 27.7242 44.5517 29.4388 46.4303C29.4421 46.4288 29.4457 46.428 29.4494 46.428C29.4531 46.428 29.4567 46.4288 29.46 46.4303C31.2881 48.4419 32.2971 51.065 32.2883 53.7831Z" fill="white"/>
<path d="M32.2898 53.7829C32.2898 55.902 31.6721 57.9752 30.5124 59.7489C29.3527 61.5225 27.7012 62.9197 25.7599 63.7696C23.8186 64.6194 21.6717 64.8851 19.5819 64.534C17.492 64.183 15.5497 63.2304 13.9927 61.7929C12.0889 59.7184 11.0616 56.9878 11.1259 54.1729C11.1901 51.358 12.341 48.6772 14.3374 46.6917C16.3338 44.7062 19.021 43.5702 21.8362 43.5214C24.6514 43.4726 27.3763 44.515 29.4403 46.4301C29.4436 46.4286 29.4473 46.4278 29.4509 46.4278C29.4546 46.4278 29.4582 46.4286 29.4615 46.4301C31.2896 48.4417 32.2986 51.0647 32.2898 53.7829Z" fill="white"/>
<path d="M21.3873 54.4191C21.3038 54.4193 21.221 54.4029 21.1439 54.3708C21.0667 54.3388 20.9967 54.2918 20.9378 54.2325L15.6204 48.9151C15.5579 48.8569 15.5078 48.7867 15.473 48.7086C15.4383 48.6306 15.4196 48.5464 15.4181 48.461C15.4166 48.3756 15.4323 48.2908 15.4643 48.2116C15.4962 48.1324 15.5439 48.0604 15.6043 48C15.6647 47.9396 15.7366 47.892 15.8158 47.86C15.895 47.828 15.9798 47.8123 16.0652 47.8138C16.1506 47.8153 16.2349 47.834 16.3129 47.8688C16.3909 47.9035 16.4611 47.9537 16.5194 48.0162L21.3873 52.8841L24.1987 50.0727C24.3192 49.9604 24.4787 49.8992 24.6435 49.9021C24.8083 49.905 24.9655 49.9718 25.082 50.0883C25.1986 50.2049 25.2653 50.3621 25.2682 50.5269C25.2711 50.6916 25.21 50.8511 25.0976 50.9717L21.8368 54.2325C21.7173 54.3515 21.5558 54.4185 21.3873 54.4191Z" fill="#263238"/>
</g>
</g>
<defs>
<clipPath id="clip0_102_800">
<rect width="92.8546" height="193.447" fill="white" transform="translate(0.285156 0.613403)"/>
</clipPath>
<clipPath id="clip1_102_800">
<rect width="212.018" height="212.018" fill="white" transform="translate(-50.7832 0.613403)"/>
</clipPath>
</defs>
</svg>
