<svg width="55" height="88" viewBox="0 0 55 88" fill="none" xmlns="http://www.w3.org/2000/svg">
<path opacity="0.19" d="M27.3378 0.571838C12.6003 0.571838 0.650391 3.10934 0.650391 6.23942C0.650391 6.29513 0.650391 6.35085 0.66091 6.4015L5.58918 78.1909L5.8732 82.2681C5.8732 82.2681 6.14145 84.8005 7.40376 85.5805C7.48265 85.6362 7.57207 85.6767 7.66148 85.7122C8.45568 86.0211 19.117 87.2418 27.343 87.0848C35.5691 87.2418 46.2356 86.0211 47.0246 85.7122C47.2402 85.6311 47.4295 85.4995 47.5979 85.3323C48.5919 84.3649 48.8181 82.263 48.8181 82.263L49.0758 78.5049L54.0146 6.4015C54.0251 6.34578 54.0251 6.29007 54.0251 6.23942C54.0304 3.10934 42.0805 0.571838 27.3378 0.571838Z" fill="#9CCAFF"/>
<path opacity="0.33" d="M53.9816 6.92315L49.1269 77.654L49.0691 78.5099L48.8113 82.2681C48.8113 82.2681 48.8113 82.2782 48.8113 82.2934C48.8113 82.3035 48.8113 82.3136 48.8113 82.3238C48.8113 82.339 48.8113 82.3491 48.8113 82.3694C48.8113 82.3846 48.8113 82.4048 48.8008 82.4301C48.8008 82.4453 48.8008 82.4656 48.7903 82.4858C48.7903 82.5162 48.7798 82.5416 48.7745 82.577C48.7745 82.5973 48.764 82.6226 48.764 82.6479C48.764 82.6834 48.7535 82.7239 48.743 82.7644C48.743 82.7897 48.7324 82.8151 48.7324 82.8404C48.7219 82.886 48.7167 82.9265 48.7009 82.9771C48.7009 82.9923 48.6904 83.0126 48.6904 83.0329C48.6693 83.1341 48.6378 83.2405 48.6115 83.3519C48.6115 83.3823 48.6009 83.4127 48.5904 83.4431C48.5799 83.4938 48.5589 83.5393 48.5431 83.5951C48.5431 83.6102 48.5326 83.6305 48.5273 83.6508C48.5273 83.671 48.5168 83.6913 48.5115 83.7115C48.4958 83.7622 48.48 83.8078 48.4589 83.8635C48.4432 83.904 48.4274 83.9445 48.4116 83.9901C48.3958 84.0408 48.3748 84.0863 48.3537 84.1319C48.3327 84.1775 48.3169 84.2231 48.2959 84.2737C48.2801 84.3193 48.2591 84.3649 48.238 84.4105L48.1591 84.5574C48.1381 84.5979 48.1223 84.6333 48.1013 84.6789C48.0539 84.765 48.0014 84.8461 47.9488 84.9271C47.9382 84.9423 47.9277 84.9575 47.9172 84.9727C47.8699 85.0385 47.8173 85.1044 47.7699 85.1601C47.7489 85.1854 47.7278 85.2107 47.7068 85.231C47.67 85.2665 47.6437 85.307 47.6069 85.3374V85.3272C47.4386 85.4893 47.2545 85.6311 47.0336 85.7122C46.2446 86.0211 35.5781 87.2418 27.352 87.0847C19.126 87.2418 8.4647 86.0211 7.67049 85.7122C7.42329 85.6159 7.20764 85.4488 7.02356 85.2462C7.01304 85.2361 6.992 85.2158 6.98148 85.2057C6.93414 85.15 6.89207 85.0892 6.84473 85.0335C6.82895 85.0081 6.81317 84.9879 6.79739 84.9676C6.75532 84.9119 6.7185 84.8461 6.67642 84.7853C6.6659 84.7549 6.64486 84.7296 6.62908 84.7093C6.59753 84.6485 6.56071 84.5827 6.52915 84.5219C6.51863 84.4915 6.50285 84.4662 6.48707 84.4358C6.45552 84.37 6.42922 84.3041 6.40292 84.2383C6.3924 84.2079 6.37662 84.1826 6.3661 84.1522L6.28721 83.9547C6.27669 83.9243 6.26617 83.8939 6.25565 83.8635C6.22935 83.7976 6.20831 83.7318 6.19254 83.671C6.18202 83.6406 6.1715 83.6102 6.16098 83.5799C6.15046 83.5495 6.1452 83.5191 6.13468 83.4887C6.12416 83.4532 6.11364 83.4178 6.10838 83.3925C6.09786 83.3671 6.0926 83.3367 6.08208 83.3114C6.07156 83.2506 6.05053 83.1899 6.04001 83.1341C6.04001 83.1088 6.02949 83.0835 6.02423 83.0582C6.01371 83.0025 5.99793 82.9467 5.99267 82.8961C5.98215 82.8708 5.98215 82.8505 5.97689 82.8303C5.96637 82.7796 5.96111 82.734 5.95059 82.6884C5.95059 82.6682 5.94007 82.653 5.94007 82.6327C5.92955 82.5922 5.92429 82.5517 5.91903 82.5162C5.91903 82.496 5.91903 82.4858 5.90852 82.4656C5.90852 82.4352 5.898 82.4048 5.898 82.3795C5.898 82.3643 5.898 82.3542 5.898 82.339C5.898 82.3288 5.898 82.3086 5.898 82.2984C5.898 82.2782 5.898 82.2681 5.898 82.2681L5.61398 78.1908L5.56138 77.4362L0.669922 6.59393C0.748816 6.83198 0.864528 7.0599 1.02232 7.26249C1.0381 7.27769 1.05388 7.29795 1.07491 7.31821L1.08543 7.32834C1.22218 7.47015 1.36419 7.60184 1.50094 7.74366C1.50094 7.74366 1.50094 7.74366 1.51146 7.75379C1.51146 7.75379 1.52198 7.75379 1.52198 7.76392C1.5325 7.76392 1.59562 7.80444 1.67451 7.85508L6.6659 75.5976C6.81317 77.5932 8.18594 79.3102 10.153 79.9534C16.8959 82.1414 29.8609 84.8258 44.7456 80.08C46.739 79.4469 48.1434 77.7249 48.2959 75.7091L53.3241 7.41444C53.5187 7.30808 53.708 7.18652 53.8658 7.02445C53.9027 6.99406 53.9447 6.9586 53.9816 6.92821V6.92315Z" fill="#A7C0FF"/>
<path opacity="0.33" d="M24.0641 84.8562C23.354 85.307 22.4652 85.3677 21.6184 85.4032C18.2206 85.5349 14.8124 85.4285 11.4304 85.0892C9.89464 84.9322 8.32201 84.7194 6.95976 84.0154C6.66522 83.8635 6.38646 83.6862 6.11822 83.4937C6.1077 83.4583 6.09718 83.4228 6.09192 83.3975C6.0814 83.3722 6.07614 83.3418 6.06563 83.3165C6.05511 83.2557 6.03407 83.1949 6.02355 83.1392C6.02355 83.1139 6.01303 83.0885 6.00777 83.0632C5.99725 83.0075 5.98147 82.9518 5.97621 82.9012C5.96569 82.8758 5.96569 82.8556 5.96043 82.8353C5.94991 82.7847 5.94465 82.7391 5.93413 82.6935C5.93413 82.6732 5.92362 82.658 5.92362 82.6378C5.9131 82.5973 5.90784 82.5567 5.90258 82.5213C5.90258 82.501 5.90258 82.4909 5.89206 82.4706C5.89206 82.4402 5.88154 82.4099 5.88154 82.3845C5.88154 82.3693 5.88154 82.3592 5.88154 82.344C5.88154 82.3339 5.88154 82.3136 5.88154 82.3035C5.88154 82.2832 5.88154 82.2731 5.88154 82.2731L5.59752 78.1959L5.54492 77.4412C5.72901 77.6489 5.91836 77.8464 6.12348 78.0389C7.94331 79.7812 10.2891 80.9613 12.7033 81.7514C16.1536 82.886 19.809 83.3215 23.3435 84.1876C23.7064 84.2788 24.1535 84.5067 24.0693 84.8562H24.0641Z" fill="#A7FFFF"/>
<path opacity="0.33" d="M49.1263 77.654L49.0684 78.5099L48.8107 82.2681C48.8107 82.2681 48.8107 82.2782 48.8107 82.2934C48.8107 82.3035 48.8107 82.3137 48.8107 82.3238C48.8107 82.339 48.8107 82.3491 48.8107 82.3694C48.8107 82.3846 48.8107 82.4048 48.8002 82.4302C48.8002 82.4453 48.8002 82.4656 48.7897 82.4859C48.7897 82.5163 48.7791 82.5416 48.7739 82.577C48.7739 82.5973 48.7634 82.6226 48.7634 82.6479C48.7634 82.6834 48.7528 82.7239 48.7423 82.7644C48.7423 82.7898 48.7318 82.8151 48.7318 82.8404C48.7213 82.886 48.716 82.9265 48.7002 82.9772C48.7002 82.9924 48.6897 83.0126 48.6897 83.0329C48.6687 83.1342 48.6371 83.2405 48.6108 83.352C48.6108 83.3824 48.6003 83.4127 48.5898 83.4431C48.5793 83.4938 48.5582 83.5394 48.5425 83.5951C48.5425 83.6103 48.5319 83.6305 48.5267 83.6508C48.3321 83.7825 48.1322 83.904 47.9218 84.0104C46.5596 84.7195 44.9869 84.9322 43.4511 85.0841C40.0692 85.4184 36.6609 85.5299 33.258 85.3982C32.4112 85.3678 31.5223 85.3019 30.8122 84.8512C30.7228 84.5017 31.1751 84.2738 31.5381 84.1826C35.0725 83.3165 38.728 82.8809 42.1783 81.7464C44.5872 80.9512 46.933 79.7762 48.7581 78.0339C48.8843 77.9123 49.0158 77.7857 49.1368 77.654H49.1263Z" fill="#A7FFFF"/>
<path d="M54.0284 6.23942C54.0284 6.29513 54.0284 6.35085 54.0179 6.4015C53.6129 9.45561 41.8261 11.9121 27.3411 11.9121C12.856 11.9121 1.06395 9.46067 0.658957 6.4015C0.648438 6.34578 0.648438 6.29007 0.648438 6.23942C0.648438 3.10934 12.5983 0.571838 27.3358 0.571838C42.0733 0.571838 54.0232 3.10934 54.0232 6.23942H54.0284Z" stroke="white" stroke-width="0.81" stroke-miterlimit="10"/>
<path d="M27.3358 0.571838C12.5983 0.571838 0.648438 3.10934 0.648438 6.23942C0.648438 6.29513 0.648438 6.35085 0.658957 6.4015L5.58723 78.1909L5.87125 82.2681C5.87125 82.2681 6.13949 84.8005 7.4018 85.5805C7.4807 85.6362 7.57011 85.6767 7.65953 85.7122C8.45373 86.0211 19.115 87.2418 27.3411 87.0848C35.5671 87.2418 46.2337 86.0211 47.0226 85.7122C47.2383 85.6312 47.4276 85.4995 47.5959 85.3323C48.59 84.3649 48.8161 82.263 48.8161 82.263L49.0739 78.5049L54.0127 6.4015C54.0232 6.34578 54.0232 6.29007 54.0232 6.23942C54.0284 3.10934 42.0786 0.571838 27.3358 0.571838Z" stroke="white" stroke-width="0.81" stroke-miterlimit="10"/>
<path opacity="0.19" d="M51.4614 8.66547L47.4589 78.0794C46.8277 79.0012 45.881 79.7154 44.7449 80.075C42.7725 80.703 40.8265 81.2044 38.9277 81.5894L42.3202 10.9295C50.0203 10.6914 51.4614 8.6604 51.4614 8.6604V8.66547Z" fill="#9CCAFF"/>
<path opacity="0.19" d="M15.693 81.4273C14.2361 81.1133 12.9107 80.7739 11.7273 80.4295C11.175 80.2675 10.649 80.1105 10.1599 79.9484C9.94424 79.8775 9.74438 79.7964 9.54451 79.7002L4.17969 9.06055L6.96203 9.71391L11.7956 10.8535L15.693 81.4324V81.4273Z" fill="#9CCAFF"/>
<path opacity="0.19" d="M11.7273 80.4295C11.175 80.2675 10.649 80.1105 10.1599 79.9484C9.94424 79.8775 9.74438 79.7964 9.54451 79.7002L4.17969 9.06055L6.96203 9.71391C7.21975 12.3831 10.5754 62.6265 11.7273 80.4295Z" fill="#9CCAFF"/>
</svg>
